<mxfile host="app.diagrams.net" modified="2024-01-11T10:19:01.104Z" agent="Mozilla/5.0 (X11; Ubuntu; Linux x86_64; rv:121.0) Gecko/20100101 Firefox/121.0" version="22.1.18" etag="w8CfPu1-t-ZRhfT4qJXm" type="github">
  <diagram name="Page-1" id="NcLZa1nF8y3ZGxrk_SNJ">
    <mxGraphModel>
      <root>
        <mxCell id="0" />
        <mxCell id="1" parent="0" />
      </root>
    </mxGraphModel>
  </diagram>
</mxfile>
